<svg xmlns="http://www.w3.org/2000/svg" xmlns:xlink="http://www.w3.org/1999/xlink" viewBox="0 0 893.29 799.49"><defs><style>.cls-1{fill:none;}.cls-2{clip-path:url(#clip-path);}.cls-3{fill:#009fc6;}.cls-4{fill:#ffc;}.cls-5{clip-path:url(#clip-path-3);}.cls-6{clip-path:url(#clip-path-4);}.cls-7{fill:#fdcc0d;}</style><clipPath id="clip-path" transform="translate(0 0)"><rect class="cls-1" width="799.49" height="799.49"/></clipPath><clipPath id="clip-path-3" transform="translate(0 0)"><rect class="cls-1" x="378.22" y="284.42" width="515.08" height="515.08"/></clipPath><clipPath id="clip-path-4" transform="translate(0 0)"><rect class="cls-1" x="378.22" y="284.42" width="515.08" height="515.08"/></clipPath></defs><title>RoboTechWheel2016</title><g id="レイヤー_2" data-name="レイヤー 2"><g class="cls-2"><g class="cls-2"><path class="cls-3" d="M696.08,340.85c32.53,163.66-73.77,322.7-237.43,355.23s-322.7-73.77-355.23-237.43c-24.4-122.75,29.3-242.89,126.72-309a301.18,301.18,0,0,1,110.72-46.21c163.66-32.53,322.7,73.77,355.23,237.43" transform="translate(0 0)"/><path class="cls-4" d="M567,366.5a170.54,170.54,0,1,1-200.51-134A170.54,170.54,0,0,1,567,366.5" transform="translate(0 0)"/><path class="cls-3" d="M399.5,97.57,403,1.44s-51.66-4.23-82.1,1.82S244.38,33,244.38,33l40,87.47" transform="translate(0 0)"/><path class="cls-3" d="M185.9,186.25l-65.47-70.48s-39.52,33.54-56.77,59.34-33.12,75.15-33.12,75.15L120.7,283.8" transform="translate(0 0)"/><path class="cls-3" d="M97.57,400,1.44,396.45s-4.23,51.66,1.82,82.1S33,555.11,33,555.11l87.47-40" transform="translate(0 0)"/><path class="cls-3" d="M186.25,613.59l-70.48,65.47s33.54,39.52,59.34,56.77S250.26,769,250.26,769L283.8,678.8" transform="translate(0 0)"/><path class="cls-3" d="M400,701.93l-3.54,96.13s51.66,4.23,82.1-1.82,76.56-29.72,76.56-29.72l-40-87.47" transform="translate(0 0)"/><path class="cls-3" d="M613.59,613.25l65.47,70.48s39.52-33.54,56.77-59.34S769,549.23,769,549.23L678.8,515.69" transform="translate(0 0)"/><path class="cls-3" d="M701.93,399.5,798.05,403s4.23-51.66-1.82-82.1-29.72-76.56-29.72-76.56l-87.47,40" transform="translate(0 0)"/><path class="cls-3" d="M613.25,185.9l70.48-65.47s-33.54-39.52-59.34-56.77-75.15-33.12-75.15-33.12L515.69,120.7" transform="translate(0 0)"/></g></g></g><g id="レイヤー_3" data-name="レイヤー 3"><g class="cls-5"><g class="cls-6"><path class="cls-7" d="M826.89,506.14c19.78,105.56-49.76,207.17-155.32,226.95S464.4,683.33,444.62,577.77A194.3,194.3,0,0,1,599.94,350.82C705.5,331,807.11,400.58,826.89,506.14" transform="translate(0 0)"/><path class="cls-4" d="M743.64,521.74a109.76,109.76,0,1,1-128.1-87.67,109.76,109.76,0,0,1,128.1,87.67" transform="translate(0 0)"/><path class="cls-7" d="M637.73,347.47l3-61.84s-33.22-3.09-52.85.59-49.48,18.59-49.48,18.59l25.15,56.58" transform="translate(0 0)"/><path class="cls-7" d="M499.63,403,458,357.22S432.32,378.52,421,395s-21.85,48.13-21.85,48.13L457,465.36" transform="translate(0 0)"/><path class="cls-7" d="M441.27,540l-61.84-3s-3.09,33.22.59,52.85,18.59,49.48,18.59,49.48l56.58-25.15" transform="translate(0 0)"/><path class="cls-7" d="M496.84,678.08,451,719.72s21.31,25.67,37.79,37,48.13,21.85,48.13,21.85l22.22-57.79" transform="translate(0 0)"/><path class="cls-7" d="M633.78,736.44l-3,61.84s33.22,3.09,52.85-.59,49.48-18.59,49.48-18.59L708,722.53" transform="translate(0 0)"/><path class="cls-7" d="M771.88,680.87l41.64,45.82s25.67-21.31,37-37.79,21.85-48.13,21.85-48.13l-57.79-22.22" transform="translate(0 0)"/><path class="cls-7" d="M830.24,543.93l61.84,3s3.09-33.22-.59-52.85-18.59-49.48-18.59-49.48L816.33,469.7" transform="translate(0 0)"/><path class="cls-7" d="M774.67,405.83l45.82-41.64s-21.31-25.67-37.79-37-48.13-21.85-48.13-21.85l-22.22,57.79" transform="translate(0 0)"/></g></g></g></svg>